<svg width="150" height="150" viewBox="0 0 150 150" fill="none" xmlns="http://www.w3.org/2000/svg">
<path d="M15 45.5331V124.132C14.9994 125.271 15.2216 126.399 15.6539 127.452C16.0863 128.504 16.7202 129.461 17.5196 130.266C18.3189 131.072 19.268 131.71 20.3125 132.146C21.357 132.582 22.4765 132.806 23.6069 132.805H94.3931C95.5236 132.806 96.6432 132.582 97.6877 132.146C98.7323 131.711 99.6815 131.072 100.481 130.266C101.28 129.461 101.914 128.504 102.346 127.452C102.779 126.399 103.001 125.271 103 124.132V25.4781C103.001 24.3389 102.779 23.2108 102.346 22.1581C101.914 21.1055 101.28 20.1491 100.481 19.3435C99.6815 18.538 98.7323 17.8992 97.6877 17.4636C96.6432 17.028 95.5236 16.8042 94.3931 16.805H45.2899C44.8472 16.8062 44.4052 16.8398 43.9674 16.9056C42.2919 17.1706 40.7321 17.9303 39.4851 19.0885L17.789 39.1447C16.504 40.3296 15.6095 41.8824 15.2258 43.5945C15.0737 44.2292 14.9979 44.8801 15 45.5331Z" fill="#F3F3F3"/>
<path d="M15.2253 43.5945H39.8006C40.9057 43.5941 41.9653 43.1516 42.7466 42.364C43.5279 41.5765 43.9668 40.5085 43.9668 39.395V16.9055C42.2914 17.1706 40.7315 17.9303 39.4845 19.0885L17.7884 39.1447C16.5034 40.3296 15.609 41.8824 15.2253 43.5945Z" fill="#D8D8D8"/>
<rect x="27" y="95.805" width="38" height="5" rx="2.5" fill="#D8D8D8"/>
<rect x="27" y="105.805" width="64" height="5" rx="2.5" fill="#D8D8D8"/>
<rect x="27" y="115.805" width="64" height="5" rx="2.5" fill="#D8D8D8"/>
<g filter="url(#filter0_b_8051_50271)">
<path d="M96.7651 73.6011C106.646 73.6011 114.655 65.5914 114.655 55.7109C114.655 45.8305 106.646 37.8208 96.7651 37.8208C86.8847 37.8208 78.875 45.8305 78.875 55.7109C78.875 65.5914 86.8847 73.6011 96.7651 73.6011Z" fill="#D8D8D8" fill-opacity="0.2"/>
</g>
<path fill-rule="evenodd" clip-rule="evenodd" d="M80.4182 39.3645C71.3892 48.3925 71.3892 63.0274 80.4182 72.0535C88.7045 80.3371 101.711 81.0201 110.772 74.098L115.83 79.1479L120.201 74.7734L115.15 69.7247C113.951 71.3028 112.552 72.717 110.987 73.9316C111.722 73.3563 112.43 72.7303 113.107 72.0535C122.134 63.0255 122.135 48.3906 113.107 39.3645C104.079 30.3385 89.4462 30.3365 80.4182 39.3645ZM108.571 67.517C106.236 69.8522 103.26 71.4426 100.021 72.0868C96.7822 72.7311 93.4248 72.4005 90.3737 71.1367C87.3226 69.8728 84.7148 67.7327 82.88 64.9867C81.0452 62.2408 80.0659 59.0125 80.0659 55.71C80.0659 52.4075 81.0452 49.1792 82.88 46.4332C84.7148 43.6873 87.3226 41.5471 90.3737 40.2833C93.4248 39.0195 96.7822 38.6888 100.021 39.3331C103.26 39.9774 106.236 41.5677 108.571 43.9029C110.121 45.4534 111.351 47.2941 112.191 49.32C113.03 51.3458 113.462 53.5172 113.462 55.71C113.462 57.9028 113.03 60.0741 112.191 62.1C111.351 64.1259 110.121 65.9666 108.571 67.517ZM133.262 83.8158L123.478 74.0315C123.143 73.6965 122.688 73.5083 122.214 73.5083C121.74 73.5083 121.286 73.6965 120.951 74.0315L115.084 79.898C114.749 80.2332 114.561 80.6877 114.561 81.1616C114.561 81.6355 114.749 82.09 115.084 82.4253L124.87 92.2075C125.983 93.3201 127.493 93.9452 129.066 93.9452C130.64 93.9452 132.149 93.3201 133.262 92.2075C133.813 91.6565 134.25 91.0024 134.549 90.2825C134.847 89.5625 135 88.7909 135 88.0116C135 87.2324 134.847 86.4608 134.549 85.7408C134.25 85.0209 133.813 84.3668 133.262 83.8158Z" fill="#D8D8D8"/>
<defs>
<filter id="filter0_b_8051_50271" x="73.875" y="32.8208" width="45.7793" height="45.7802" filterUnits="userSpaceOnUse" color-interpolation-filters="sRGB">
<feFlood flood-opacity="0" result="BackgroundImageFix"/>
<feGaussianBlur in="BackgroundImageFix" stdDeviation="2.5"/>
<feComposite in2="SourceAlpha" operator="in" result="effect1_backgroundBlur_8051_50271"/>
<feBlend mode="normal" in="SourceGraphic" in2="effect1_backgroundBlur_8051_50271" result="shape"/>
</filter>
</defs>
</svg>
