<svg width="120" height="104" viewBox="0 0 120 104" fill="none" xmlns="http://www.w3.org/2000/svg"><path d="M95.6388 31.2122L91.7458 59.4903L86.8796 94.4315C85.7441 95.0816 84.4465 95.5692 83.1488 95.5692H27.0252C24.5921 95.5692 22.4834 94.7566 20.6991 93.4564C20.2125 93.1314 19.7259 92.6439 19.2393 92.1563C17.2928 90.2061 15.9951 87.2808 15.9951 84.1929V23.7364C15.9951 20.9736 18.266 18.8608 20.8613 18.8608H37.8931C39.0285 18.8608 40.164 19.3484 41.1372 20.3235L46.6522 26.3367C47.4633 27.1492 48.5987 27.6368 49.7342 27.6368H92.3946C94.3411 27.6368 95.801 29.262 95.6388 31.2122Z" fill="#CADBE8" /><g filter="url(#filter0_d_4141_66382)"><path d="M24.2676 89.3934L28.8094 36.9002C28.9716 34.95 30.5937 33.4873 32.5401 33.4873H97.0985C98.8828 33.4873 100.18 34.95 100.018 36.7377L95.4765 81.43L24.2676 89.3934Z" fill="#ECF5FA" /></g><g filter="url(#filter1_d_4141_66382)"><path d="M50.0587 83.7052L26.3765 89.2307L40.9751 49.0889C41.6239 47.3012 43.246 46.1636 45.1925 46.1636H102.452C104.56 46.1636 106.02 48.4388 105.047 50.389L89.475 82.2425L50.0587 83.7052Z" fill="#FAFDFF" /></g><g filter="url(#filter2_d_4141_66382)"><path d="M110.561 63.3909L88.8257 92.6441C88.3391 93.2942 87.528 93.9442 86.8792 94.4318C85.7438 95.0819 84.4461 95.5694 83.1484 95.5694H27.0248C24.5917 95.5694 22.483 94.7568 20.6987 93.4567L41.8042 68.8368C42.822 67.6496 44.3077 66.9663 45.8714 66.9663H79.0933C80.7153 66.9663 82.3374 66.4788 83.6351 65.3411L89.7989 60.6281C90.4478 60.1406 91.0966 59.8155 91.7454 59.4905C92.5564 59.1655 93.5297 59.003 94.3407 59.003H108.291C110.561 58.8404 111.859 61.6032 110.561 63.3909Z" fill="#CADBE8" /></g><g filter="url(#filter3_b_4141_66382)"><circle cx="98.6481" cy="33.4592" r="20.6633" fill="#ECF5FA" fill-opacity="0.2" /><circle cx="98.6481" cy="33.4592" r="20.428" stroke="#CADBE8" stroke-width="0.470619" /></g><defs><filter id="filter0_d_4141_66382" x="13.5533" y="25.8342" width="91.0703" height="71.2124" filterUnits="userSpaceOnUse" color-interpolation-filters="sRGB"><feFlood flood-opacity="0" result="BackgroundImageFix" /><feColorMatrix in="SourceAlpha" type="matrix" values="0 0 0 0 0 0 0 0 0 0 0 0 0 0 0 0 0 0 127 0" result="hardAlpha" /><feOffset dx="-3.06122" /><feGaussianBlur stdDeviation="3.82653" /><feColorMatrix type="matrix" values="0 0 0 0 0.397708 0 0 0 0 0.47749 0 0 0 0 0.575 0 0 0 0.15 0" /><feBlend mode="normal" in2="BackgroundImageFix" result="effect1_dropShadow_4141_66382" /><feBlend mode="normal" in="SourceGraphic" in2="effect1_dropShadow_4141_66382" result="shape" /></filter><filter id="filter1_d_4141_66382" x="15.6622" y="38.5105" width="94.2846" height="58.3735" filterUnits="userSpaceOnUse" color-interpolation-filters="sRGB"><feFlood flood-opacity="0" result="BackgroundImageFix" /><feColorMatrix in="SourceAlpha" type="matrix" values="0 0 0 0 0 0 0 0 0 0 0 0 0 0 0 0 0 0 127 0" result="hardAlpha" /><feOffset dx="-3.06122" /><feGaussianBlur stdDeviation="3.82653" /><feColorMatrix type="matrix" values="0 0 0 0 0.397708 0 0 0 0 0.47749 0 0 0 0 0.575 0 0 0 0.15 0" /><feBlend mode="normal" in2="BackgroundImageFix" result="effect1_dropShadow_4141_66382" /><feBlend mode="normal" in="SourceGraphic" in2="effect1_dropShadow_4141_66382" result="shape" /></filter><filter id="filter2_d_4141_66382" x="9.21914" y="51.343" width="105.685" height="51.8794" filterUnits="userSpaceOnUse" color-interpolation-filters="sRGB"><feFlood flood-opacity="0" result="BackgroundImageFix" /><feColorMatrix in="SourceAlpha" type="matrix" values="0 0 0 0 0 0 0 0 0 0 0 0 0 0 0 0 0 0 127 0" result="hardAlpha" /><feOffset dx="-3.82653" /><feGaussianBlur stdDeviation="3.82653" /><feColorMatrix type="matrix" values="0 0 0 0 0.397708 0 0 0 0 0.47749 0 0 0 0 0.575 0 0 0 0.2 0" /><feBlend mode="normal" in2="BackgroundImageFix" result="effect1_dropShadow_4141_66382" /><feBlend mode="normal" in="SourceGraphic" in2="effect1_dropShadow_4141_66382" result="shape" /></filter><filter id="filter3_b_4141_66382" x="70.455" y="5.26599" width="56.3865" height="56.3865" filterUnits="userSpaceOnUse" color-interpolation-filters="sRGB"><feFlood flood-opacity="0" result="BackgroundImageFix" /><feGaussianBlur in="BackgroundImageFix" stdDeviation="3.76495" /><feComposite in2="SourceAlpha" operator="in" result="effect1_backgroundBlur_4141_66382" /><feBlend mode="normal" in="SourceGraphic" in2="effect1_backgroundBlur_4141_66382" result="shape" /></filter></defs></svg>